<?xml version="1.0" encoding="UTF-8" standalone="no"?>
<svg width="270.933mm" height="38.8937mm"
 xmlns="http://www.w3.org/2000/svg" xmlns:xlink="http://www.w3.org/1999/xlink"  version="1.2" baseProfile="tiny">
<desc>Created by EvoPdf</desc>
<defs>
</defs>
<g fill="none" stroke="black" stroke-width="1" fill-rule="evenodd" stroke-linecap="square" stroke-linejoin="bevel" >

<g fill="#000000" fill-opacity="1" stroke="#000000" stroke-opacity="1" stroke-width="1" stroke-linecap="butt" stroke-linejoin="miter" stroke-miterlimit="2" transform="matrix(1,0,0,1,0,0)"
>
</g>

<g fill="#000000" fill-opacity="1" stroke="#000000" stroke-opacity="1" stroke-width="1" stroke-linecap="butt" stroke-linejoin="miter" stroke-miterlimit="2" transform="matrix(1,0,0,1,0,0)"
>
</g>

<g fill="#000000" fill-opacity="1" stroke="#000000" stroke-opacity="1" stroke-width="1" stroke-linecap="butt" stroke-linejoin="miter" stroke-miterlimit="2" transform="matrix(1,0,0,1,0,0)"
>
</g>

<g fill="#000000" fill-opacity="1" stroke="#000000" stroke-opacity="1" stroke-width="1" stroke-linecap="butt" stroke-linejoin="miter" stroke-miterlimit="2" transform="matrix(1,0,0,1,0,0)"
>
</g>

<g fill="#000000" fill-opacity="1" stroke="#000000" stroke-opacity="1" stroke-width="1" stroke-linecap="butt" stroke-linejoin="miter" stroke-miterlimit="2" transform="matrix(1.008,0,0,1.008,8,-430.5)"
>
</g>

<g fill="#000000" fill-opacity="1" stroke="#000000" stroke-opacity="1" stroke-width="1" stroke-linecap="butt" stroke-linejoin="miter" stroke-miterlimit="2" transform="matrix(1.008,0,0,1.008,8,-430.5)"
>
</g>

<g fill="#000000" fill-opacity="1" stroke="none" transform="matrix(1.008,0,0,1.008,8,-430.5)"
>
<path vector-effect="none" fill-rule="nonzero" d="M493.4,487.3 L430.6,487.3 L430.6,439.1 L411.6,439.1 L411.6,561.5 L430.6,561.5 L430.6,503.5 L493.4,503.5 L493.4,561.5 L512.2,561.5 L512.2,439.1 L493.4,439.1 M308.1,438.7 C301.2,438.5 287.2,438.5 274.8,438.5 L274.8,561.4 L294,561.4 L294,514.8 C298.8,514.8 308.7,514.4 316.7,514.2 C327.9,514 357.1,508.4 356.9,474.7 C357.2,436.7 315.1,438.7 308.1,438.7 L308.1,438.7 M307.1,498.5 L294.4,498.5 L294.4,454.2 L305.2,454.2 C310.2,454.2 339.7,452 340.6,474.9 C341.8,497.4 318.5,498.5 307.1,498.5 L307.1,498.5 M130.9,438.5 L131.1,561.4 L208.2,561.4 L208.2,545.4 L150.3,545.4 L150.3,503.7 L191.3,503.7 C191.3,500.2 191.1,495.1 191.3,488.4 L150.3,488.4 L150.3,454.9 L208.2,454.9 C208,445.2 208.2,438.5 208.2,438.5 L130.9,438.5 L130.9,438.5 M18.8,468.5 C18.8,448.4 45.4,447.6 61.1,460.5 C66.5,445 66.9,443.9 66.9,443.9 C21.1,421.9 0.2,451 0.2,469.6 C0.2,514.1 63.3,504.6 54.2,535.9 C51,547.3 30.7,553.8 7.3,539.6 C5.6,544.4 2.8,550.2 -9.53674e-07,556 C30.9,572.2 71,564.4 72.3,531 C74.1,489 18.8,492 18.8,468.5 L18.8,468.5 M829.2,473 C826.4,436.5 791,439.3 783.2,438.9 C776.7,438.7 762.9,438.5 751,438.5 L751,561.2 L770.2,561.2 L770.2,509.6 C776.7,509.6 778.8,509.6 788.6,509.2 L823.6,561.2 L846.9,561.2 L808.2,506 C818.6,502.2 830.7,493.3 829.2,473 M782.1,495.2 C777.8,495.2 774.5,495.2 770.2,495 L770.2,453.5 L780.3,453.5 C785.1,453.5 810.3,452 812.5,472.1 C815.2,495.9 787.3,495.2 782.1,495.2 L782.1,495.2 M955.9,438.7 L933.7,438.7 L893.5,561.6 L912.5,561.6 C918.5,539.4 920.5,533.1 920.5,533.1 L970.2,532.9 C976,549.3 980.3,561.8 980.3,561.8 L1000,561.8 L955.9,438.7 L955.9,438.7 M924.9,519 L944.3,458.3 L944.5,458.3 L964.8,518.8 L924.9,519 M631.4,435.2 C592.3,435.2 566.8,464.1 566.8,500 C566.8,535.9 592.3,564.8 631.4,564.8 C670.5,564.8 696,535.9 696,500 C696,464.1 670.5,435.2 631.4,435.2 M631.4,547.1 C602.7,547.1 586.5,526.2 586.5,500 C586.5,474.1 602.7,452.9 631.4,452.9 C659.9,452.9 676.3,473.8 676.3,500 C676.3,525.9 660.1,547.1 631.4,547.1 "/>
</g>

<g fill="#000000" fill-opacity="1" stroke="#000000" stroke-opacity="1" stroke-width="1" stroke-linecap="butt" stroke-linejoin="miter" stroke-miterlimit="2" transform="matrix(1.008,0,0,1.008,8,-430.5)"
>
</g>

<g fill="#000000" fill-opacity="1" stroke="#000000" stroke-opacity="1" stroke-width="1" stroke-linecap="butt" stroke-linejoin="miter" stroke-miterlimit="2" transform="matrix(1.008,0,0,1.008,8,-430.5)"
>
</g>

<g fill="#000000" fill-opacity="1" stroke="#000000" stroke-opacity="1" stroke-width="1" stroke-linecap="butt" stroke-linejoin="miter" stroke-miterlimit="2" transform="matrix(1,0,0,1,0,0)"
>
</g>

<g fill="#000000" fill-opacity="1" stroke="#000000" stroke-opacity="1" stroke-width="1" stroke-linecap="butt" stroke-linejoin="miter" stroke-miterlimit="2" transform="matrix(1,0,0,1,0,0)"
>
</g>

<g fill="#000000" fill-opacity="1" stroke="#000000" stroke-opacity="1" stroke-width="1" stroke-linecap="butt" stroke-linejoin="miter" stroke-miterlimit="2" transform="matrix(1,0,0,1,0,0)"
>
</g>

<g fill="#000000" fill-opacity="1" stroke="#000000" stroke-opacity="1" stroke-width="1" stroke-linecap="butt" stroke-linejoin="miter" stroke-miterlimit="2" transform="matrix(1,0,0,1,0,0)"
>
</g>

<g fill="#000000" fill-opacity="1" stroke="#000000" stroke-opacity="1" stroke-width="1" stroke-linecap="butt" stroke-linejoin="miter" stroke-miterlimit="2" transform="matrix(1,0,0,1,0,0)"
>
</g>

<g fill="#000000" fill-opacity="1" stroke="#000000" stroke-opacity="1" stroke-width="1" stroke-linecap="butt" stroke-linejoin="miter" stroke-miterlimit="2" transform="matrix(1,0,0,1,0,0)"
>
</g>
</g>
</svg>
