<?xml version="1.0" encoding="UTF-8" standalone="no"?>
<svg width="270.933mm" height="12.7mm"
 xmlns="http://www.w3.org/2000/svg" xmlns:xlink="http://www.w3.org/1999/xlink"  version="1.2" baseProfile="tiny">
<desc>Created by EvoPdf</desc>
<defs>
</defs>
<g fill="none" stroke="black" stroke-width="1" fill-rule="evenodd" stroke-linecap="square" stroke-linejoin="bevel" >

<g fill="#000000" fill-opacity="1" stroke="#000000" stroke-opacity="1" stroke-width="1" stroke-linecap="butt" stroke-linejoin="miter" stroke-miterlimit="2" transform="matrix(1,0,0,1,0,0)"
>
</g>

<g fill="#000000" fill-opacity="1" stroke="#000000" stroke-opacity="1" stroke-width="1" stroke-linecap="butt" stroke-linejoin="miter" stroke-miterlimit="2" transform="matrix(1,0,0,1,0,0)"
>
</g>

<g fill="#000000" fill-opacity="1" stroke="#000000" stroke-opacity="1" stroke-width="1" stroke-linecap="butt" stroke-linejoin="miter" stroke-miterlimit="2" transform="matrix(1,0,0,1,0,0)"
>
</g>

<g fill="#000000" fill-opacity="1" stroke="#000000" stroke-opacity="1" stroke-width="1" stroke-linecap="butt" stroke-linejoin="miter" stroke-miterlimit="2" transform="matrix(1,0,0,1,0,0)"
>
</g>

<g fill="#000000" fill-opacity="1" stroke="#000000" stroke-opacity="1" stroke-width="1" stroke-linecap="butt" stroke-linejoin="miter" stroke-miterlimit="2" transform="matrix(1,0,0,1,8,8)"
>
</g>

<g fill="#cc0000" fill-opacity="1" stroke="none" transform="matrix(1,0,0,1,8,8)"
>
<path vector-effect="none" fill-rule="nonzero" d="M0,0 L47.948,0 L47.948,2.456 L0,2.456 L0,0 M0,4.913 L47.948,4.913 L47.948,7.37 L0,7.37 L0,4.912 L0,4.913 M0,9.826 L47.948,9.826 L47.948,12.282 L0,12.282 L0,9.826 M0,14.739 L47.948,14.739 L47.948,17.194 L0,17.194 L0,14.74 L0,14.739 M0,19.651 L47.948,19.651 L47.948,22.107 L0,22.107 L0,19.651 M0,24.563 L47.948,24.563 L47.948,27.02 L0,27.02 L0,24.564 L0,24.563 M0,29.476 L47.948,29.476 L47.948,31.933 L0,31.933 L0,29.476"/>
</g>

<g fill="#000000" fill-opacity="1" stroke="#000000" stroke-opacity="1" stroke-width="1" stroke-linecap="butt" stroke-linejoin="miter" stroke-miterlimit="2" transform="matrix(1,0,0,1,8,8)"
>
</g>

<g fill="#ffffff" fill-opacity="1" stroke="none" transform="matrix(1,0,0,1,8,8)"
>
<path vector-effect="none" fill-rule="nonzero" d="M0,2.456 L47.948,2.456 L47.948,4.913 L0,4.913 L0,2.456 M0,7.37 L47.948,7.37 L47.948,9.826 L0,9.826 L0,7.37 M0,12.282 L47.948,12.282 L47.948,14.739 L0,14.739 L0,12.28 L0,12.282 M0,17.195 L47.948,17.195 L47.948,19.652 L0,19.652 L0,17.195 M0,22.108 L47.948,22.108 L47.948,24.564 L0,24.564 L0,22.108 M0,27.021 L47.948,27.021 L47.948,29.478 L0,29.478 L0,27.02 L0,27.021"/>
</g>

<g fill="#000000" fill-opacity="1" stroke="#000000" stroke-opacity="1" stroke-width="1" stroke-linecap="butt" stroke-linejoin="miter" stroke-miterlimit="2" transform="matrix(1,0,0,1,8,8)"
>
</g>

<g fill="#000000" fill-opacity="1" stroke="#000000" stroke-opacity="1" stroke-width="1" stroke-linecap="butt" stroke-linejoin="miter" stroke-miterlimit="2" transform="matrix(1,0,0,1,8,8)"
>
</g>

<g fill="#192f5d" fill-opacity="1" stroke="none" transform="matrix(1,0,0,1,8,8)"
>
<path vector-effect="none" fill-rule="nonzero" d="M0,0 L19,0 L19,17 L0,17"/>
</g>

<g fill="#000000" fill-opacity="1" stroke="#000000" stroke-opacity="1" stroke-width="1" stroke-linecap="butt" stroke-linejoin="miter" stroke-miterlimit="2" transform="matrix(1,0,0,1,8,8)"
>
</g>

<g fill="#ffffff" fill-opacity="1" stroke="none" transform="matrix(1,0,0,1,8,8)"
>
<path vector-effect="none" fill-rule="nonzero" d="M1.72,1 L1.89,1.655 L2.44,1.655 L1.995,2.06 L2.165,2.715 L1.72,2.31 L1.275,2.715 L1.445,2.06 L1,1.655 L1.55,1.655 L1.72,1 M4.832,1 L5.002,1.655 L5.552,1.655 L5.107,2.06 L5.277,2.715 L4.832,2.31 L4.387,2.715 L4.557,2.06 L4.112,1.655 L4.662,1.655 L4.832,1 M7.944,1 L8.114,1.655 L8.664,1.655 L8.219,2.06 L8.389,2.715 L7.943,2.31 L7.498,2.715 L7.668,2.06 L7.222,1.655 L7.772,1.655 L7.944,1 L7.944,1 M11.056,1 L11.226,1.655 L11.776,1.655 L11.331,2.06 L11.501,2.715 L11.057,2.31 L10.612,2.715 L10.782,2.06 L10.338,1.655 L10.888,1.655 L11.058,1 L11.056,1 M14.168,1 L14.338,1.655 L14.888,1.655 L14.443,2.06 L14.613,2.715 L14.168,2.31 L13.723,2.715 L13.893,2.06 L13.448,1.655 L13.998,1.655 L14.168,1 L14.168,1 M17.28,1 L17.45,1.655 L18,1.655 L17.555,2.06 L17.725,2.715 L17.28,2.31 L16.835,2.715 L17.005,2.06 L16.561,1.655 L17.111,1.655 L17.28,1 L17.28,1 M3.276,2.657 L3.446,3.312 L3.996,3.312 L3.551,3.717 L3.721,4.372 L3.277,3.967 L2.832,4.372 L3.002,3.717 L2.558,3.312 L3.108,3.312 L3.278,2.657 L3.276,2.657 M6.388,2.657 L6.558,3.312 L7.108,3.312 L6.663,3.717 L6.833,4.372 L6.388,3.967 L5.943,4.372 L6.113,3.717 L5.668,3.312 L6.218,3.312 L6.388,2.657 L6.388,2.657 M9.5,2.657 L9.67,3.312 L10.22,3.312 L9.775,3.717 L9.945,4.372 L9.5,3.967 L9.055,4.372 L9.225,3.717 L8.78,3.312 L9.33,3.312 L9.5,2.657 L9.5,2.657 M12.612,2.657 L12.782,3.312 L13.332,3.312 L12.887,3.717 L13.057,4.372 L12.612,3.967 L12.167,4.372 L12.337,3.717 L11.892,3.312 L12.442,3.312 L12.612,2.657 L12.612,2.657 M15.724,2.657 L15.894,3.312 L16.444,3.312 L16,3.717 L16.17,4.372 L15.724,3.967 L15.279,4.372 L15.449,3.717 L15.003,3.312 L15.553,3.312 L15.723,2.657 L15.724,2.657 M1.72,4.314 L1.89,4.969 L2.44,4.969 L1.995,5.373 L2.165,6.028 L1.72,5.622 L1.275,6.027 L1.445,5.371 L1,4.97 L1.55,4.97 L1.72,4.314 M4.832,4.314 L5.002,4.969 L5.552,4.969 L5.107,5.373 L5.277,6.028 L4.832,5.622 L4.387,6.027 L4.557,5.371 L4.112,4.966 L4.662,4.966 L4.832,4.31 L4.832,4.314 M7.944,4.314 L8.114,4.969 L8.664,4.969 L8.219,5.373 L8.389,6.028 L7.943,5.622 L7.498,6.027 L7.668,5.371 L7.222,4.966 L7.772,4.966 L7.942,4.31 L7.944,4.314 M11.056,4.314 L11.226,4.969 L11.776,4.969 L11.331,5.373 L11.501,6.028 L11.057,5.622 L10.612,6.027 L10.782,5.371 L10.338,4.966 L10.888,4.966 L11.058,4.31 L11.056,4.314 M14.168,4.314 L14.338,4.969 L14.888,4.969 L14.443,5.373 L14.613,6.028 L14.168,5.622 L13.723,6.027 L13.893,5.371 L13.448,4.966 L13.998,4.966 L14.168,4.31 L14.168,4.314 M17.28,4.314 L17.45,4.969 L18,4.969 L17.555,5.373 L17.725,6.028 L17.28,5.622 L16.835,6.027 L17.005,5.371 L16.561,4.966 L17.111,4.966 L17.281,4.31 L17.28,4.314 M3.276,5.97 L3.446,6.626 L3.996,6.626 L3.551,7.031 L3.721,7.687 L3.277,7.282 L2.832,7.688 L3,7.03 L2.556,6.626 L3.106,6.626 L3.276,5.971 L3.276,5.97 M6.388,5.97 L6.558,6.626 L7.108,6.626 L6.663,7.031 L6.833,7.687 L6.388,7.282 L5.943,7.688 L6.113,7.033 L5.668,6.629 L6.218,6.629 L6.388,5.974 L6.388,5.97 M9.5,5.97 L9.67,6.626 L10.22,6.626 L9.775,7.031 L9.945,7.687 L9.5,7.28 L9.055,7.686 L9.225,7.031 L8.78,6.627 L9.33,6.627 L9.5,5.972 L9.5,5.97 M12.612,5.97 L12.782,6.626 L13.332,6.626 L12.887,7.031 L13.057,7.687 L12.612,7.282 L12.167,7.688 L12.337,7.033 L11.892,6.629 L12.442,6.629 L12.612,5.974 L12.612,5.97 M15.724,5.97 L15.894,6.626 L16.444,6.626 L16,7.03 L16.17,7.686 L15.724,7.281 L15.279,7.687 L15.449,7.032 L15.003,6.628 L15.553,6.628 L15.723,5.973 L15.724,5.97 M1.72,7.63 L1.89,8.285 L2.44,8.285 L1.995,8.69 L2.165,9.345 L1.72,8.94 L1.275,9.345 L1.445,8.69 L1,8.283 L1.55,8.283 L1.72,7.628 L1.72,7.63 M4.832,7.63 L5.002,8.285 L5.552,8.285 L5.107,8.69 L5.277,9.345 L4.832,8.94 L4.387,9.345 L4.557,8.69 L4.112,8.285 L4.662,8.285 L4.832,7.63 L4.832,7.63 M7.944,7.63 L8.114,8.285 L8.664,8.285 L8.219,8.69 L8.389,9.345 L7.943,8.94 L7.498,9.345 L7.668,8.69 L7.222,8.285 L7.772,8.285 L7.942,7.63 L7.944,7.63 M11.056,7.63 L11.226,8.285 L11.776,8.285 L11.331,8.69 L11.501,9.345 L11.057,8.94 L10.612,9.345 L10.782,8.69 L10.338,8.285 L10.888,8.285 L11.058,7.63 L11.056,7.63 M14.168,7.63 L14.338,8.285 L14.888,8.285 L14.443,8.69 L14.613,9.345 L14.168,8.94 L13.723,9.345 L13.893,8.69 L13.448,8.285 L13.998,8.285 L14.168,7.63 L14.168,7.63 M17.28,7.63 L17.45,8.285 L18,8.285 L17.555,8.69 L17.725,9.345 L17.28,8.94 L16.835,9.345 L17.005,8.69 L16.561,8.285 L17.111,8.285 L17.281,7.63 L17.28,7.63 M3.276,9.285 L3.446,9.94 L3.996,9.94 L3.551,10.345 L3.721,11 L3.277,10.595 L2.83,11 L3,10.345 L2.556,9.94 L3.106,9.94 L3.276,9.285 L3.276,9.285 M6.388,9.285 L6.558,9.94 L7.108,9.94 L6.663,10.345 L6.833,11 L6.388,10.595 L5.943,11 L6.113,10.345 L5.668,9.94 L6.218,9.94 L6.388,9.285 M9.5,9.285 L9.67,9.94 L10.22,9.94 L9.775,10.345 L9.945,11 L9.5,10.595 L9.055,11 L9.225,10.345 L8.78,9.94 L9.33,9.94 L9.5,9.285 L9.5,9.285 M12.612,9.285 L12.782,9.94 L13.332,9.94 L12.887,10.345 L13.057,11 L12.612,10.595 L12.167,11 L12.337,10.345 L11.892,9.94 L12.442,9.94 L12.612,9.285 L12.612,9.285 M15.724,9.285 L15.894,9.94 L16.444,9.94 L15.999,10.345 L16.169,11 L15.723,10.595 L15.278,11 L15.448,10.345 L15.002,9.94 L15.552,9.94 L15.722,9.285 L15.724,9.285 M1.72,11 L1.89,11.583 L2.44,11.583 L1.995,11.943 L2.165,12.526 L1.72,12.166 L1.275,12.526 L1.445,11.943 L1,11.583 L1.55,11.583 L1.72,11 M4.832,11 L5.002,11.583 L5.552,11.583 L5.107,11.943 L5.277,12.526 L4.832,12.166 L4.387,12.526 L4.557,11.943 L4.112,11.583 L4.662,11.583 L4.832,11 M7.944,11 L8.114,11.583 L8.664,11.583 L8.219,11.943 L8.389,12.526 L7.943,12.166 L7.498,12.526 L7.668,11.943 L7.222,11.583 L7.772,11.583 L7.942,11 L7.944,11 M11.056,11 L11.226,11.583 L11.776,11.583 L11.331,11.943 L11.501,12.526 L11.057,12.166 L10.612,12.526 L10.782,11.943 L10.338,11.583 L10.888,11.583 L11.058,11 L11.056,11 M14.168,11 L14.338,11.583 L14.888,11.583 L14.443,11.943 L14.613,12.526 L14.168,12.166 L13.723,12.526 L13.893,11.943 L13.448,11.583 L13.998,11.583 L14.168,11 L14.168,11 M17.28,11 L17.45,11.583 L18,11.583 L17.555,11.943 L17.725,12.526 L17.28,12.166 L16.835,12.526 L17.005,11.943 L16.561,11.583 L17.111,11.583 L17.281,11 L17.28,11 M3.276,12.474 L3.446,13.057 L3.996,13.057 L3.551,13.417 L3.721,14 L3.277,13.64 L2.832,14 L3.002,13.417 L2.558,13.057 L3.108,13.057 L3.278,12.474 L3.276,12.474 M6.388,12.474 L6.558,13.057 L7.108,13.057 L6.663,13.417 L6.833,14 L6.388,13.64 L5.943,14 L6.113,13.417 L5.668,13.057 L6.218,13.057 L6.388,12.474 M9.5,12.474 L9.67,13.057 L10.22,13.057 L9.775,13.417 L9.945,14 L9.5,13.64 L9.055,14 L9.225,13.417 L8.78,13.057 L9.33,13.057 L9.5,12.474 L9.5,12.474 M12.612,12.474 L12.782,13.057 L13.332,13.057 L12.887,13.417 L13.057,14 L12.612,13.64 L12.167,14 L12.337,13.417 L11.892,13.057 L12.442,13.057 L12.612,12.474 L12.612,12.474 M15.724,12.474 L15.894,13.057 L16.444,13.057 L15.999,13.417 L16.169,14 L15.723,13.64 L15.278,14 L15.448,13.417 L15.002,13.057 L15.552,13.057 L15.722,12.474 L15.724,12.474 M1.72,14 L1.89,14.764 L2.44,14.764 L1.995,15.236 L2.165,16 L1.72,15.528 L1.275,16 L1.445,15.236 L1,14.764 L1.55,14.764 L1.72,14 M4.832,14 L5.002,14.764 L5.552,14.764 L5.107,15.236 L5.277,16 L4.832,15.528 L4.387,16 L4.557,15.236 L4.112,14.764 L4.662,14.764 L4.832,14 M7.944,14 L8.114,14.764 L8.664,14.764 L8.219,15.236 L8.389,16 L7.943,15.528 L7.5,16 L7.67,15.236 L7.224,14.764 L7.774,14.764 L7.944,14 L7.944,14 M11.056,14 L11.226,14.764 L11.776,14.764 L11.331,15.236 L11.501,16 L11.057,15.528 L10.612,16 L10.782,15.236 L10.338,14.764 L10.888,14.764 L11.058,14 L11.056,14 M14.168,14 L14.338,14.764 L14.888,14.764 L14.443,15.236 L14.613,16 L14.168,15.528 L13.723,16 L13.893,15.236 L13.448,14.764 L13.998,14.764 L14.168,14 L14.168,14 M17.28,14 L17.45,14.764 L18,14.764 L17.555,15.236 L17.725,16 L17.28,15.528 L16.835,16 L17.005,15.236 L16.561,14.764 L17.111,14.764 L17.281,14 L17.28,14"/>
</g>

<g fill="#000000" fill-opacity="1" stroke="#000000" stroke-opacity="1" stroke-width="1" stroke-linecap="butt" stroke-linejoin="miter" stroke-miterlimit="2" transform="matrix(1,0,0,1,8,8)"
>
</g>

<g fill="none" stroke="#cccccc" stroke-opacity="1" stroke-width="0.5" stroke-linecap="butt" stroke-linejoin="miter" stroke-miterlimit="4" transform="matrix(1,0,0,1,8,8)"
>
<path vector-effect="none" fill-rule="nonzero" d="M0.25,0.25 L47.75,0.25 L47.75,31.75 L0.25,31.75 L0.25,0.25"/>
</g>

<g fill="#000000" fill-opacity="1" stroke="#000000" stroke-opacity="1" stroke-width="1" stroke-linecap="butt" stroke-linejoin="miter" stroke-miterlimit="2" transform="matrix(1,0,0,1,8,8)"
>
</g>

<g fill="#000000" fill-opacity="1" stroke="#000000" stroke-opacity="1" stroke-width="1" stroke-linecap="butt" stroke-linejoin="miter" stroke-miterlimit="2" transform="matrix(1,0,0,1,8,8)"
>
</g>

<g fill="#000000" fill-opacity="1" stroke="#000000" stroke-opacity="1" stroke-width="1" stroke-linecap="butt" stroke-linejoin="miter" stroke-miterlimit="2" transform="matrix(1,0,0,1,8,8)"
>
</g>

<g fill="#000000" fill-opacity="1" stroke="#000000" stroke-opacity="1" stroke-width="1" stroke-linecap="butt" stroke-linejoin="miter" stroke-miterlimit="2" transform="matrix(1,0,0,1,0,0)"
>
</g>

<g fill="#000000" fill-opacity="1" stroke="#000000" stroke-opacity="1" stroke-width="1" stroke-linecap="butt" stroke-linejoin="miter" stroke-miterlimit="2" transform="matrix(1,0,0,1,0,0)"
>
</g>

<g fill="#000000" fill-opacity="1" stroke="#000000" stroke-opacity="1" stroke-width="1" stroke-linecap="butt" stroke-linejoin="miter" stroke-miterlimit="2" transform="matrix(1,0,0,1,0,0)"
>
</g>

<g fill="#000000" fill-opacity="1" stroke="#000000" stroke-opacity="1" stroke-width="1" stroke-linecap="butt" stroke-linejoin="miter" stroke-miterlimit="2" transform="matrix(1,0,0,1,0,0)"
>
</g>

<g fill="#000000" fill-opacity="1" stroke="#000000" stroke-opacity="1" stroke-width="1" stroke-linecap="butt" stroke-linejoin="miter" stroke-miterlimit="2" transform="matrix(1,0,0,1,0,0)"
>
</g>

<g fill="#000000" fill-opacity="1" stroke="#000000" stroke-opacity="1" stroke-width="1" stroke-linecap="butt" stroke-linejoin="miter" stroke-miterlimit="2" transform="matrix(1,0,0,1,0,0)"
>
</g>
</g>
</svg>
